<?xml version="1.0" standalone="no"?>
<!DOCTYPE svg PUBLIC "-//W3C//DTD SVG 1.1//EN" "http://www.w3.org/Graphics/SVG/1.1/DTD/svg11.dtd" >
<svg xmlns="http://www.w3.org/2000/svg">
<metadata></metadata>
<defs>
<font id="favoritcregular" horiz-adv-x="1183" >
<font-face units-per-em="2048" ascent="1499" descent="-549" />
<missing-glyph horiz-adv-x="591" />
<glyph horiz-adv-x="2048" />
<glyph horiz-adv-x="2048" />
<glyph unicode="&#xd;" horiz-adv-x="2048" />
<glyph unicode=" "  horiz-adv-x="591" />
<glyph unicode="&#x09;" horiz-adv-x="591" />
<glyph unicode="&#xa0;" horiz-adv-x="591" />
<glyph unicode="!" horiz-adv-x="657" d="M211 86q0 48 35 83.5t84 35.5t84 -35.5t35 -83.5q0 -50 -34.5 -84.5t-84.5 -34.5t-84.5 34.5t-34.5 84.5zM238 356v1188h184v-1188h-184z" />
<glyph unicode="&#x22;" horiz-adv-x="899" d="M184 1544h201l-37 -672h-127zM514 1544h201l-37 -672h-127z" />
<glyph unicode="#" d="M51 430v164h236l55 315h-215v164h244l73 397h158l-74 -397h254l72 397h162l-72 -397h189v-164h-220l-55 -315h207v-164h-240l-77 -430h-156l76 430h-252l-82 -430h-154l76 430h-205zM446 594h252l56 315h-252z" />
<glyph unicode="$" d="M102 397l185 39q27 -134 94 -203t199 -86v615l-74 37q-69 35 -115.5 66t-91 75.5t-66.5 102.5t-22 131q0 153 108 272t261 131v184h102v-184q114 -10 204 -72t146 -166l-162 -92q-32 60 -76.5 95.5t-111.5 56.5v-481q68 -29 121.5 -59.5t107.5 -73t90 -90.5t58 -112 t22 -137q0 -109 -53 -214t-145.5 -177.5t-200.5 -87.5v-194h-102v194q-179 3 -314.5 127t-163.5 303zM389 1188q0 -83 51 -134t140 -87v432q-81 -12 -136 -71.5t-55 -139.5zM682 160q93 22 154 100.5t61 177.5q0 95 -57.5 160t-157.5 117v-555z" />
<glyph unicode="%" horiz-adv-x="1449" d="M35 1225q0 147 106.5 249.5t253.5 102.5t254 -102.5t107 -249.5q0 -145 -107.5 -248t-253.5 -103t-253 103t-107 248zM158 1225q0 -93 70.5 -160.5t166.5 -67.5t167 67.5t71 160.5q0 94 -71 161.5t-167 67.5t-166.5 -67t-70.5 -162zM227 18l903 1559l93 -53l-901 -1557z M696 317q0 147 107 250t254 103t253.5 -103t106.5 -250q0 -145 -107 -247.5t-253 -102.5t-253.5 102.5t-107.5 247.5zM819 317q0 -93 71 -160t167 -67t166.5 67t70.5 160q0 95 -70.5 162.5t-166.5 67.5t-167 -67.5t-71 -162.5z" />
<glyph unicode="&#x26;" horiz-adv-x="1417" d="M109 422q0 57 15 108.5t37 90t60 78t72.5 67.5t85.5 65l96 70q-170 178 -170 338q0 156 100.5 247t256.5 91q95 0 175.5 -37.5t130.5 -112t50 -172.5q0 -50 -18 -98.5t-42.5 -84.5t-67 -76.5t-73.5 -65t-80 -60.5l322 -389l180 209l123 -127l-188 -221l276 -342h-238 l-168 209q-94 -110 -213 -176t-249 -66q-197 0 -335 129.5t-138 325.5zM289 424q0 -110 88 -197.5t198 -87.5q51 0 100.5 17t97 51t80 63t77.5 74l-342 418l-19 -12q-126 -83 -177 -131q-103 -97 -103 -195zM485 1262q0 -36 16.5 -74.5t30.5 -58t46 -60.5l51 -65l24 16 q34 23 52 35.5t47.5 38.5t45 47.5t28 52.5t12.5 63q0 79 -51 123.5t-130 44.5q-71 0 -121.5 -45.5t-50.5 -117.5z" />
<glyph unicode="'" horiz-adv-x="567" d="M184 1544h201l-37 -672h-127z" />
<glyph unicode="(" horiz-adv-x="598" d="M117 631q0 269 52.5 543t160.5 483l151 -113q-91 -191 -133.5 -430t-42.5 -483t42.5 -483.5t133.5 -430.5l-151 -112q-108 210 -160.5 484t-52.5 542z" />
<glyph unicode=")" horiz-adv-x="598" d="M117 -283q91 191 133.5 430.5t42.5 483.5t-42.5 483t-133.5 430l151 113q108 -209 160.5 -483t52.5 -543q0 -268 -52.5 -542t-160.5 -484z" />
<glyph unicode="*" horiz-adv-x="884" d="M129 1124l174 101l-172 102l64 117l182 -101v201h141v-194l166 98l72 -121l-174 -102l174 -103l-72 -118l-166 102v-197h-141v199l-178 -100z" />
<glyph unicode="+" d="M68 436v176h436v437h176v-437h436v-176h-436v-436h-176v436h-436z" />
<glyph unicode="," horiz-adv-x="591" d="M111 -319l225 563l160 -64l-273 -547z" />
<glyph unicode="-" horiz-adv-x="679" d="M76 477v154h530v-154h-530z" />
<glyph unicode="." horiz-adv-x="591" d="M178 86q0 48 35 83.5t84 35.5t84 -35.5t35 -83.5q0 -50 -35 -84.5t-84 -34.5t-84 34.5t-35 84.5z" />
<glyph unicode="/" horiz-adv-x="1128" d="M66 -193l852 1971l147 -66l-854 -1970z" />
<glyph unicode="0" d="M53 772q0 83 12.5 170t38 179t69.5 172.5t101.5 144.5t139.5 101.5t178 37.5q83 0 155.5 -28t126 -76t97.5 -113t73 -137.5t49 -152t28.5 -154t8.5 -144.5q0 -82 -12.5 -169.5t-38.5 -179t-69.5 -172.5t-101 -145t-139 -101.5t-177.5 -37.5t-177.5 37.5t-139 101.5 t-101.5 145t-70 172.5t-38.5 179t-12.5 169.5zM238 774q0 -70 10 -148.5t35.5 -167t64 -158t102 -115.5t142.5 -46t142.5 46t102 115.5t64 158t35.5 167t10 148.5t-10 148.5t-35.5 168t-64 159.5t-102 116.5t-142.5 46.5t-142.5 -46.5t-102 -116.5t-64 -159.5t-35.5 -168 t-10 -148.5z" />
<glyph unicode="1" d="M252 1368l106 176h347v-1544h-185v1368h-268z" />
<glyph unicode="2" d="M92 0l676 829q41 50 65.5 85.5t48 90t23.5 101.5q0 120 -91 207.5t-212 87.5q-118 0 -203.5 -82.5t-93.5 -200.5h-192q24 209 153 334t336 125q130 0 242 -59t179 -166t67 -238q0 -176 -115 -317l-508 -621h623v-176h-998z" />
<glyph unicode="3" d="M109 381h186q13 -111 99 -178.5t200 -67.5q128 0 211.5 87.5t83.5 215.5q0 146 -91 228t-235 71v160q65 0 118 13t95.5 41t66 77t23.5 117q0 116 -76 190t-192 74q-103 0 -172 -60t-84 -161h-190q28 190 144.5 289.5t307.5 99.5q190 0 318.5 -114t128.5 -302 q0 -237 -197 -348q110 -52 164.5 -152.5t54.5 -230.5q0 -141 -66 -247.5t-177 -161t-250 -54.5q-188 0 -325 114.5t-146 299.5z" />
<glyph unicode="4" d="M14 225l947 1385v-1217h176v-168h-176v-225h-185v225h-762zM338 393h438v637h-4z" />
<glyph unicode="5" d="M61 238l144 135q35 -97 136 -163.5t206 -66.5q156 0 264.5 111.5t108.5 267.5q0 149 -110 258t-259 109q-83 0 -160.5 -36.5t-128.5 -100.5h-37l238 792h618v-176h-485l-96 -317l108 6q144 8 259.5 -69t176 -202.5t60.5 -269.5q0 -159 -77 -285.5t-207 -195t-288 -68.5 q-145 0 -275 73t-196 198z" />
<glyph unicode="6" d="M82 461q0 107 44 203.5t124 203.5l526 709l139 -94l-411 -557l4 -4q70 36 151 36q123 0 227 -69t162 -179.5t58 -234.5q0 -139 -68.5 -256t-186 -184.5t-255.5 -67.5q-132 0 -250.5 66t-191 181t-72.5 247zM266 465q0 -133 97.5 -229.5t230.5 -96.5q130 0 229 94t99 222 q0 140 -100 235.5t-228 95.5q-127 0 -227.5 -98t-100.5 -223z" />
<glyph unicode="7" d="M96 59l799 1309h-799v176h1112l-962 -1577z" />
<glyph unicode="8" d="M109 430q0 129 63 230t180 141q-96 55 -149 144t-53 202q0 187 127.5 308.5t314.5 121.5t314.5 -121.5t127.5 -308.5q0 -113 -53.5 -202t-149.5 -144q117 -40 180.5 -141t63.5 -230q0 -139 -66.5 -246t-175.5 -162t-241 -55t-241 55t-175.5 162t-66.5 246zM293 430 q0 -116 92 -203.5t207 -87.5t207 87.5t92 203.5q0 121 -90 206t-209 85t-209 -85t-90 -206zM330 1147q0 -93 83 -177.5t179 -84.5t179 84.5t83 177.5q0 109 -78.5 187.5t-183.5 78.5t-183.5 -78.5t-78.5 -187.5z" />
<glyph unicode="9" d="M106 1069q0 139 68.5 256t186 184.5t255.5 67.5q132 0 250.5 -66t191 -181t72.5 -247q0 -106 -44 -203.5t-123 -203.5l-527 -709l-139 96l412 555l-4 5q-57 -29 -150 -29q-124 0 -228.5 67.5t-162.5 176.5t-58 231zM291 1081q0 -89 48.5 -164.5t123.5 -117t155 -41.5 q143 0 235.5 96t92.5 227q0 81 -43 156t-116.5 121.5t-155.5 46.5q-138 0 -239 -96t-101 -228z" />
<glyph unicode=":" horiz-adv-x="591" d="M178 86q0 48 35 83.5t84 35.5t84 -35.5t35 -83.5q0 -50 -35 -84.5t-84 -34.5t-84 34.5t-35 84.5zM178 868q0 48 35 83.5t84 35.5t84 -35.5t35 -83.5q0 -49 -34.5 -83.5t-84.5 -34.5t-84.5 34.5t-34.5 83.5z" />
<glyph unicode=";" horiz-adv-x="591" d="M94 -319l225 563l160 -64l-272 -547zM274 868q0 48 35 83.5t84 35.5t84 -35.5t35 -83.5q0 -49 -34.5 -83.5t-84.5 -34.5t-84.5 34.5t-34.5 83.5z" />
<glyph unicode="&#x3c;" d="M68 453v143l1048 424v-193l-786 -303l786 -303v-192z" />
<glyph unicode="=" d="M68 260v176h1048v-176h-1048zM68 612v176h1048v-176h-1048z" />
<glyph unicode="&#x3e;" d="M68 29v192l786 303l-786 303v193l1048 -424v-143z" />
<glyph unicode="?" horiz-adv-x="927" d="M104 1229q-6 97 46 178t138 125.5t183 44.5q156 0 262.5 -104t106.5 -259q0 -72 -29 -140t-82 -113q-31 -27 -82 -51.5t-78 -33.5t-94 -30q-68 -21 -108.5 -55t-40.5 -95q0 -62 41 -104.5t102 -42.5q65 0 106 46t39 112h187q6 -131 -96.5 -230.5t-235.5 -99.5 q-137 0 -233.5 95.5t-96.5 232.5q0 56 15.5 101.5t37.5 75t59.5 54.5t68.5 39t77 31q10 4 41.5 15t42.5 15.5t38 15.5t38 18.5t30.5 20.5t28 25t19 28.5t14.5 35.5t4 41q0 83 -52.5 132.5t-135.5 49.5q-72 0 -124 -52t-52 -124q0 -20 12 -66h-192zM350 86q0 48 35 83.5 t84 35.5t84 -35.5t35 -83.5q0 -50 -35 -84.5t-84 -34.5t-84 34.5t-35 84.5z" />
<glyph unicode="@" horiz-adv-x="1638" d="M74 772q0 169 61.5 319t166 256t249 168t305.5 62q279 0 481 -178q230 -206 230 -471q0 -128 -33 -241.5t-94 -192.5q-70 -92 -154 -137t-162 -42q-43 2 -72 35.5t-38 91.5q-127 -127 -279 -127q-137 0 -240.5 111.5t-103.5 267.5q0 125 50.5 236t148 181.5t219.5 70.5 q80 0 146 -34t126 -112l29 127h145l-102 -526l-3 -15q-7 -36 -10 -56t-3.5 -48.5t11 -42.5t34.5 -14q47 0 98.5 55t87 148t35.5 190q0 168 -73 296.5t-198 195.5t-282 67q-169 0 -310 -86t-221.5 -233t-80.5 -322q0 -137 52 -257.5t140 -204t206.5 -131.5t248.5 -48 q265 0 381 98l153 -123q-130 -70 -249 -104.5t-302 -34.5q-163 0 -309.5 61t-253 166.5t-169 256t-62.5 321.5zM551 709q0 -95 56.5 -164.5t148.5 -69.5q66 0 116.5 23.5t82.5 65.5t50 91t25 107q15 122 -43 191t-166 69q-118 0 -194 -96.5t-76 -216.5z" />
<glyph unicode="A" horiz-adv-x="1439" d="M-16 0l737 1610l737 -1610h-207l-176 387h-708l-177 -387h-206zM446 563h549l-274 625z" />
<glyph unicode="B" horiz-adv-x="1095" d="M131 0v1544h188q94 0 171.5 -10.5t153 -39t127 -74.5t83 -122.5t31.5 -177.5q0 -89 -45.5 -173.5t-120.5 -119.5v-4q134 -24 221.5 -138.5t87.5 -252.5q0 -112 -45 -197.5t-122 -135t-170 -74.5t-199 -25h-361zM324 172h147q57 0 106.5 7t98.5 26t83 48.5t55.5 78.5 t21.5 112q0 62 -25 110t-63.5 76.5t-93 46t-105 24t-107.5 6.5h-118v-535zM324 860h49q60 0 105 5.5t90 22t73.5 44t46 75t17.5 111.5q0 63 -17.5 109.5t-45.5 74t-72 43.5t-89 21.5t-104 5.5h-53v-512z" />
<glyph unicode="C" horiz-adv-x="1353" d="M61 764q0 168 65 319t175 259t262 171.5t320 63.5q220 0 389 -104v-224q-82 73 -190 112.5t-218 39.5q-169 0 -310 -86t-220.5 -231t-79.5 -314q0 -167 79 -311t219 -230t308 -86q232 0 412 160v-227q-88 -52 -196 -80.5t-210 -28.5q-217 0 -402 105.5t-294 289 t-109 402.5z" />
<glyph unicode="D" horiz-adv-x="1361" d="M131 0v1544h320q180 0 335 -48t274.5 -140.5t188 -240.5t68.5 -335q0 -154 -44 -282.5t-123 -219.5t-188.5 -154.5t-239.5 -93.5t-278 -30h-313zM324 176h67q122 0 227.5 18.5t200 62.5t161 111t105.5 170t39 234q0 132 -39 235t-105.5 170t-161 110.5t-199.5 62 t-228 18.5h-67v-1192z" />
<glyph unicode="E" horiz-adv-x="1067" d="M147 0v1544h830v-176h-637v-432h618v-176h-618v-584h637v-176h-830z" />
<glyph unicode="F" horiz-adv-x="970" d="M145 0v1544h748v-176h-555v-434h536v-176h-536v-758h-193z" />
<glyph unicode="G" horiz-adv-x="1597" d="M43 768q0 219 107 405t291.5 295t402.5 109q181 0 348.5 -79t280.5 -220l-136 -129q-84 115 -214.5 183.5t-270.5 68.5q-127 0 -241.5 -49.5t-196.5 -134t-130 -200t-48 -243.5q0 -161 79.5 -306t219 -235t301.5 -90q119 0 234 61t191 168.5t80 229.5h-399v176h612v-61 q0 -157 -54 -295.5t-149 -238.5t-232 -158t-296 -58q-211 0 -391.5 110.5t-284.5 295t-104 395.5z" />
<glyph unicode="H" horiz-adv-x="1382" d="M131 0v1544h193v-622h735v622h192v-1544h-192v741h-735v-741h-193z" />
<glyph unicode="I" horiz-adv-x="475" d="M141 0v1544h193v-1544h-193z" />
<glyph unicode="J" horiz-adv-x="741" d="M-39 35l96 164q68 -52 154 -52q35 0 64.5 9.5t50.5 23t37.5 38.5t27.5 46.5t18 55.5t11 57.5t6 62.5t2 58.5v56.5v8v981h193v-981q0 -69 -4 -127t-16 -120.5t-31 -112t-51.5 -95t-75 -75.5t-104 -48t-136.5 -18q-127 0 -242 68z" />
<glyph unicode="K" horiz-adv-x="1228" d="M147 0v1544h193v-670l655 670h252l-694 -694l707 -850h-261l-581 719l-78 -74v-645h-193z" />
<glyph unicode="L" horiz-adv-x="788" d="M147 0v1544h193v-1368h469v-176h-662z" />
<glyph unicode="M" horiz-adv-x="1742" d="M27 0l315 1610l530 -1217l531 1217l315 -1610h-198l-181 1020h-4l-463 -1053l-462 1053h-4l-181 -1020h-198z" />
<glyph unicode="N" horiz-adv-x="1607" d="M129 0v1618l1159 -1215v1141h193v-1607l-1159 1214v-1151h-193z" />
<glyph unicode="O" horiz-adv-x="1695" d="M39 772q0 130 41.5 253t116.5 222t174.5 173.5t223 115.5t253.5 41t253.5 -41t223 -115.5t174.5 -173.5t116.5 -222t41.5 -253q0 -169 -64 -319t-173 -256t-258 -168t-314 -62t-314 62t-258 168t-173 256t-64 319zM231 772q0 -129 49.5 -245.5t133 -199.5t197.5 -131.5 t237 -48.5q165 0 306.5 82t225.5 226.5t84 316.5q0 169 -77.5 311.5t-219.5 228t-319 85.5q-133 0 -249 -50t-196 -135t-126 -199.5t-46 -240.5z" />
<glyph unicode="P" horiz-adv-x="1013" d="M147 0v1544h222q141 0 247 -19.5t177 -55.5t115.5 -92t63.5 -123.5t19 -155.5q0 -118 -42.5 -207t-118 -141t-170.5 -77.5t-209 -25.5h-111v-647h-193zM340 819h61q66 0 119 5.5t109.5 23.5t94.5 48t62.5 82.5t24.5 123.5q0 50 -13.5 91t-36 68.5t-56.5 48t-68.5 32.5 t-79.5 19t-82.5 9t-83.5 2h-51v-553z" />
<glyph unicode="Q" horiz-adv-x="1695" d="M39 772q0 130 41.5 253t116.5 222t174.5 173.5t223 115.5t253.5 41t253.5 -41t223 -115.5t174.5 -173.5t116.5 -222t41.5 -253q0 -163 -63.5 -312t-178.5 -257l240 -236h-234l-133 137q-94 -65 -211 -101t-229 -36q-165 0 -314 62t-258 168t-173 256t-64 319zM231 772 q0 -129 49.5 -245.5t133 -199.5t197.5 -131.5t237 -48.5q73 0 156 23t151 66l-354 346h239l244 -242q86 76 133 196t47 236q0 169 -77.5 311.5t-219.5 228t-319 85.5q-133 0 -249 -50t-196 -135t-126 -199.5t-46 -240.5z" />
<glyph unicode="R" horiz-adv-x="1112" d="M147 0v1544h234q91 0 143.5 -2.5t129.5 -19t134 -49.5q95 -56 149 -156.5t54 -212.5q0 -168 -102.5 -290t-267.5 -142l487 -672h-234l-454 653h-80v-653h-193zM340 813h61q66 0 119 5.5t109.5 23.5t94.5 48t62.5 82.5t24.5 123.5q0 70 -26.5 121.5t-66 80.5t-98.5 46.5 t-111.5 22.5t-117.5 5h-51v-559z" />
<glyph unicode="S" horiz-adv-x="1099" d="M66 399l194 41q-1 -126 86 -209.5t213 -83.5q122 0 203.5 89t81.5 213q0 48 -15.5 89t-39 69.5t-61 55t-71 43t-79.5 35.5l-107 45q-58 24 -103 48.5t-90.5 59.5t-75.5 74.5t-48.5 93.5t-18.5 116q0 120 65.5 213t168.5 139.5t221 46.5q129 0 231.5 -60.5t165.5 -173.5 l-153 -92q-44 74 -103 110t-145 36q-99 0 -178.5 -61.5t-79.5 -157.5q0 -139 215 -222l110 -43q89 -35 153.5 -73.5t119 -93t82.5 -129t28 -168.5q0 -138 -65.5 -248.5t-178 -172t-249.5 -61.5q-186 0 -319 122t-158 310z" />
<glyph unicode="T" horiz-adv-x="933" d="M4 1368v176h926v-176h-367v-1368h-192v1368h-367z" />
<glyph unicode="U" horiz-adv-x="1370" d="M121 567v977h192v-911q0 -486 373 -486t373 486v911h192v-977q0 -171 -66.5 -306t-196 -214.5t-302.5 -79.5t-302.5 79.5t-196 214.5t-66.5 306z" />
<glyph unicode="V" horiz-adv-x="1310" d="M-14 1544h211l460 -1143l459 1143h211l-670 -1626z" />
<glyph unicode="W" horiz-adv-x="2103" d="M-25 1544h209l432 -1106l437 1139l436 -1139l432 1106h209l-641 -1605l-436 1132l-437 -1132z" />
<glyph unicode="X" horiz-adv-x="1175" d="M0 0l485 809l-426 735h220l315 -563l336 563h219l-444 -735l469 -809h-216l-364 633l-379 -633h-215z" />
<glyph unicode="Y" horiz-adv-x="1173" d="M-12 1544h221l379 -659l379 659h221l-504 -872v-672h-192v672z" />
<glyph unicode="Z" horiz-adv-x="1130" d="M18 0l783 1368h-672v176h985l-782 -1368h782v-176h-1096z" />
<glyph unicode="[" horiz-adv-x="636" d="M125 -395v2052h389v-172h-201v-1708h201v-172h-389z" />
<glyph unicode="\" horiz-adv-x="1128" d="M63 1778h173l827 -1778h-172zM891 0h172h-172z" />
<glyph unicode="]" horiz-adv-x="636" d="M123 -223h201v1708h-201v172h389v-2052h-389v172z" />
<glyph unicode="^" d="M68 631l409 913h230l409 -913h-192l-332 741l-334 -741h-190z" />
<glyph unicode="_" horiz-adv-x="1024" d="M0 -231h1024v-154h-1024v154z" />
<glyph unicode="`" horiz-adv-x="737" d="M156 1413l170 90l256 -340l-90 -55z" />
<glyph unicode="a" horiz-adv-x="1138" d="M53 485q0 132 54 245.5t159 185t240 71.5q103 0 188 -49.5t144 -138.5h4v159h184v-958h-184v150h-4q-57 -85 -141.5 -134t-184.5 -49q-141 0 -247.5 73t-159 189.5t-52.5 255.5zM238 479q0 -92 34 -170t104.5 -128t164.5 -50q145 0 228 100t83 248q0 146 -83.5 245 t-227.5 99q-137 0 -220 -102t-83 -242z" />
<glyph unicode="b" horiz-adv-x="1138" d="M113 0v1778h184v-979h4q59 89 144 138.5t190 49.5q133 0 237.5 -71t158.5 -185t54 -246q0 -104 -30.5 -197t-87 -164.5t-145 -114t-195.5 -42.5q-99 0 -184 49.5t-142 133.5h-4v-150h-184zM287 479q0 -92 34 -170t104.5 -128t164.5 -50q145 0 228 100t83 248 q0 146 -83.5 245t-227.5 99q-137 0 -220 -102t-83 -242z" />
<glyph unicode="c" horiz-adv-x="903" d="M53 471q0 146 69.5 264.5t189.5 185t266 66.5q145 0 253 -63v-238q-114 129 -274 129q-133 0 -226 -101t-93 -235q0 -148 92.5 -244t238.5 -96q148 0 262 127v-235q-119 -64 -264 -64q-140 0 -258 65.5t-187 181.5t-69 257z" />
<glyph unicode="d" horiz-adv-x="1138" d="M53 485q0 98 32 189t89.5 160.5t143 111t186.5 41.5q105 0 190 -49.5t144 -138.5h4v979h184v-1778h-184v150h-4q-57 -84 -142 -133.5t-184 -49.5q-107 0 -195.5 42.5t-145 114t-87.5 164.5t-31 197zM238 479q0 -92 34 -170t104.5 -128t164.5 -50q145 0 228 100t83 248 q0 146 -83.5 245t-227.5 99q-137 0 -220 -102t-83 -242z" />
<glyph unicode="e" horiz-adv-x="999" d="M53 471q0 230 121.5 373t345.5 143q148 0 251 -69t150.5 -182t47.5 -259v-28h-731q2 -129 81.5 -223.5t206.5 -94.5q100 0 165 46t122 140l156 -88q-67 -124 -185.5 -193t-259.5 -69q-143 0 -251 67t-164 181t-56 256zM248 588h536q-18 110 -87 174.5t-177 64.5 q-105 0 -179.5 -67t-92.5 -172z" />
<glyph unicode="f" horiz-adv-x="563" d="M80 786v172h84v467q0 377 309 377q67 0 129 -24v-187q-90 39 -123 39q-27 0 -48.5 -10t-35 -24.5t-23 -39t-14 -44t-7 -50.5t-3 -47.5t-0.5 -44.5v-412h254v-172h-254v-786h-184v786h-84z" />
<glyph unicode="g" horiz-adv-x="1136" d="M51 485q0 98 32 189t89.5 160.5t143 111t186.5 41.5q105 0 190.5 -50.5t143.5 -141.5h4v163h184v-940q0 -132 -21 -229.5t-72 -176.5t-144.5 -120t-229.5 -41q-203 0 -331.5 117.5t-131.5 316.5h185q0 -127 78.5 -198.5t207.5 -71.5q82 0 138 26.5t85 77t40.5 109.5 t11.5 139v183h-4q-57 -84 -142 -133.5t-184 -49.5q-107 0 -195.5 42.5t-145 114t-87.5 164.5t-31 197zM236 479q0 -92 34 -170t104.5 -128t164.5 -50q145 0 228 100t83 248q0 146 -83.5 245t-227.5 99q-137 0 -220 -102t-83 -242z" />
<glyph unicode="h" horiz-adv-x="1071" d="M127 0v1778h184v-949h4q42 75 120.5 116.5t168.5 41.5q98 0 166.5 -31.5t105.5 -90.5t52.5 -130t15.5 -164v-571h-184v549q0 55 -4 92.5t-16.5 74.5t-35 58.5t-61.5 35t-94 13.5q-39 0 -71 -8t-55 -19.5t-41.5 -33.5t-30 -40.5t-19.5 -50.5t-12 -53.5t-6 -59.5 t-2.5 -58.5t-0.5 -59.5v-440h-184z" />
<glyph unicode="i" horiz-adv-x="520" d="M133 1397q0 54 37 91.5t90 37.5t90 -37.5t37 -91.5q0 -52 -37 -88.5t-90 -36.5t-90 36.5t-37 88.5zM168 0v958h184v-958h-184z" />
<glyph unicode="j" horiz-adv-x="520" d="M133 1397q0 54 37 91.5t90 37.5t90 -37.5t37 -91.5q0 -52 -37 -88.5t-90 -36.5t-90 36.5t-37 88.5zM168 -549v1507h184v-1507h-184z" />
<glyph unicode="k" horiz-adv-x="946" d="M139 0v1778h185v-1180l360 360h244l-410 -397l451 -561h-240l-342 436l-63 -63v-373h-185z" />
<glyph unicode="l" horiz-adv-x="454" d="M135 0v1778h184v-1778h-184z" />
<glyph unicode="m" horiz-adv-x="1570" d="M121 0v958h184v-120h4q41 65 109.5 107t144.5 42q179 0 277 -170q45 77 125 123.5t170 46.5q317 0 317 -414v-573h-184v543q0 43 -3 77t-13.5 74t-29 66.5t-52 44.5t-80.5 18q-57 0 -97.5 -23.5t-62 -57t-33.5 -85.5t-15 -92t-3 -94v-471h-185v508q0 40 -1.5 67.5 t-6.5 68.5t-16.5 69t-30 55t-49.5 41t-72 14q-47 0 -84 -15t-59 -43.5t-37 -60.5t-21.5 -76t-9 -78.5t-2.5 -78.5v-471h-184z" />
<glyph unicode="n" horiz-adv-x="1071" d="M127 0v958h184v-129h4q42 75 120.5 116.5t168.5 41.5q98 0 166.5 -31.5t105.5 -90.5t52.5 -130t15.5 -164v-571h-184v549q0 55 -4 92.5t-16.5 74.5t-35 58.5t-61.5 35t-94 13.5q-39 0 -71 -8t-55 -19.5t-41.5 -33.5t-30 -40.5t-19.5 -50.5t-12 -53.5t-6 -59.5t-2.5 -58.5 t-0.5 -59.5v-440h-184z" />
<glyph unicode="o" horiz-adv-x="1105" d="M41 477q0 216 148 363t364 147t364 -147t148 -363t-148 -363t-364 -147t-364 147t-148 363zM225 477q0 -136 96 -235t232 -99t232 99t96 235q0 137 -96 235.5t-232 98.5t-232 -98.5t-96 -235.5z" />
<glyph unicode="p" horiz-adv-x="1138" d="M113 -549v1507h184v-159h4q59 89 144 138.5t190 49.5q133 0 237.5 -71t158.5 -185t54 -246q0 -104 -30.5 -197t-87 -164.5t-145 -114t-195.5 -42.5q-99 0 -184 49.5t-142 133.5h-4v-699h-184zM287 479q0 -92 34 -170t104.5 -128t164.5 -50q145 0 228 100t83 248 q0 146 -83.5 245t-227.5 99q-137 0 -220 -102t-83 -242z" />
<glyph unicode="q" horiz-adv-x="1138" d="M53 485q0 98 32 189t89.5 160.5t143 111t186.5 41.5q105 0 190 -49.5t144 -138.5h4v159h184v-1507h-184v699h-4q-57 -84 -142 -133.5t-184 -49.5q-107 0 -195.5 42.5t-145 114t-87.5 164.5t-31 197zM238 479q0 -92 34 -170t104.5 -128t164.5 -50q145 0 228 100t83 248 q0 146 -83.5 245t-227.5 99q-137 0 -220 -102t-83 -242z" />
<glyph unicode="r" horiz-adv-x="718" d="M139 0v958h185v-155h6q34 86 102.5 135t159.5 49q78 0 151 -47l-84 -168q-44 39 -112 39q-57 0 -99 -21t-65.5 -53t-37 -80t-17.5 -90t-4 -96v-471h-185z" />
<glyph unicode="s" horiz-adv-x="786" d="M72 182l157 72q33 -60 72.5 -91.5t101.5 -31.5q60 0 103 37.5t43 97.5q0 36 -16 58.5t-52 46.5l-180 96q-94 50 -139 101t-45 141q0 117 82.5 197.5t199.5 80.5q87 0 155.5 -44.5t107.5 -123.5l-150 -80q-18 37 -51 60.5t-72 23.5t-69.5 -27.5t-30.5 -66.5q0 -18 5.5 -33 t20 -29.5t25.5 -24t38 -23.5t39.5 -20t47.5 -21.5t47 -20.5q48 -22 83 -43.5t69 -53.5t51.5 -76t17.5 -99q0 -135 -97.5 -226.5t-232.5 -91.5q-107 0 -200.5 58t-130.5 157z" />
<glyph unicode="t" horiz-adv-x="491" d="M53 786v172h101v367h184v-367h180v-172h-180v-786h-184v786h-101z" />
<glyph unicode="u" horiz-adv-x="1048" d="M119 408v550h184v-530q0 -63 9.5 -111t32.5 -90.5t68 -65t111 -22.5t111 22.5t68 65t32.5 90.5t9.5 111v530h185v-550q0 -205 -100.5 -323t-305.5 -118t-305 118t-100 323z" />
<glyph unicode="v" horiz-adv-x="911" d="M-27 958h207l275 -598l276 598h207l-483 -991z" />
<glyph unicode="w" horiz-adv-x="1470" d="M-33 958h209l279 -610l282 664l281 -664l278 610h209l-487 -991l-281 641l-282 -641z" />
<glyph unicode="x" horiz-adv-x="1001" d="M-29 0l428 520l-344 438h217l228 -309l248 309h223l-353 -438l412 -520h-215l-315 389l-305 -389h-224z" />
<glyph unicode="y" horiz-adv-x="991" d="M-27 958h215l324 -608l301 608h207l-776 -1507h-209l377 713z" />
<glyph unicode="z" horiz-adv-x="1013" d="M4 0l649 786h-538v172h897l-650 -786h623v-172h-981z" />
<glyph unicode="{" horiz-adv-x="684" d="M98 555v150q154 68 154 309v372q0 113 60 192t114 79h160v-172h-82q-18 0 -30.5 -7.5t-19 -17t-10 -29t-4 -33.5t-0.5 -40v-377q0 -67 -14 -125.5t-32.5 -95t-43 -67.5t-38.5 -43.5t-27 -20.5q16 -9 36.5 -29.5t50 -61t49 -109t19.5 -150.5v-377q0 -26 0.5 -40t4 -33.5 t10 -29t19 -17t30.5 -7.5h82v-172h-160q-54 0 -114 79t-60 191v373q0 241 -154 309z" />
<glyph unicode="|" horiz-adv-x="1167" d="M496 0v1778h176v-1778h-176z" />
<glyph unicode="}" horiz-adv-x="684" d="M98 -225h82q18 0 30.5 7.5t19 17t10 29t4 33.5t0.5 40v377q0 82 19.5 150.5t49 109t50 61t36.5 29.5q-13 8 -27 20.5t-38.5 43.5t-43 67.5t-32.5 95t-14 125.5v377q0 26 -0.5 40t-4 33.5t-10 29t-19 17t-30.5 7.5h-82v172h160q54 0 114 -79t60 -192v-372q0 -241 154 -309 v-150q-154 -68 -154 -309v-373q0 -112 -60 -191t-114 -79h-160v172z" />
<glyph unicode="~" d="M68 465q77 111 112 149q96 103 201 103q67 0 126 -28.5t124 -76.5q14 -10 38.5 -29.5t38 -29.5t32.5 -22t34 -17.5t29 -5.5q49 0 81 35t81 117q9 16 14 24l137 -102q-135 -250 -311 -250q-51 0 -107 27.5t-129 76.5q-16 11 -43 30t-43 29.5t-35.5 22.5t-35 17.5 t-27.5 5.5q-49 0 -91.5 -40.5t-96.5 -127.5z" />
<glyph unicode="&#xa3;" d="M23 49q31 54 59 91t65.5 70.5t85 51t105.5 19.5q19 64 26 115.5t-2.5 109.5t-39.5 110h-265v119h205q-119 228 -119 369q0 129 73 239t189.5 172t243.5 62q215 0 348 -131.5t144 -347.5l-185 -70v57q0 128 -85.5 220t-213.5 92q-126 0 -227.5 -98t-101.5 -212 q0 -49 16.5 -102t34 -86t50 -88t44.5 -76h303v-119h-254q29 -97 28.5 -176t-28.5 -176l152 -53q13 -4 56.5 -22.5t75.5 -27.5t60 -9q30 0 56 13t48 39t34.5 46t31.5 53l154 -94q-46 -109 -127.5 -175.5t-192.5 -66.5q-97 0 -268 68q-160 65 -237 65q-127 0 -181 -133z" />
<glyph unicode="&#xa9;" horiz-adv-x="1638" d="M12 772q0 221 107 406t292.5 292t407.5 107t407.5 -107t292.5 -292t107 -406t-107 -406t-292.5 -292t-407.5 -107t-407.5 107t-292.5 292t-107 406zM143 772q0 -139 54 -264.5t145 -215t216 -142t261 -52.5t261 52.5t216 142t145 215t54 264.5q0 140 -54 265.5t-145 215 t-216 141.5t-261 52t-261 -52t-216 -141.5t-145 -215t-54 -265.5zM403 778q0 204 121 334.5t326 130.5q144 0 248 -82t131 -223h-125q-19 84 -86.5 129t-169.5 45q-80 0 -142 -28.5t-98 -76t-54.5 -105t-18.5 -120.5q0 -148 84 -242t233 -94q101 0 165.5 47t86.5 136h125 q-12 -95 -67 -167.5t-135.5 -109.5t-174.5 -37q-200 0 -324.5 133.5t-124.5 329.5z" />
<glyph unicode="&#xab;" horiz-adv-x="1071" d="M61 655l373 492l115 -84l-305 -408l305 -391l-115 -84zM455 655l372 492l115 -84l-305 -408l305 -391l-115 -84z" />
<glyph unicode="&#xad;" horiz-adv-x="679" d="M76 477v154h530v-154h-530z" />
<glyph unicode="&#xae;" horiz-adv-x="1638" d="M12 772q0 221 107 406t292.5 292t407.5 107t407.5 -107t292.5 -292t107 -406t-107 -406t-292.5 -292t-407.5 -107t-407.5 107t-292.5 292t-107 406zM143 772q0 -139 54 -264.5t145 -215t216 -142t261 -52.5t261 52.5t216 142t145 215t54 264.5q0 140 -54 265.5t-145 215 t-216 141.5t-261 52t-261 -52t-216 -141.5t-145 -215t-54 -265.5zM508 313v906h381q311 0 311 -240q0 -64 -20.5 -113t-55.5 -77t-76.5 -42t-89.5 -16l230 -418h-150l-231 418h-168v-418h-131zM639 862h139q14 0 54 -1t58.5 0t52.5 3t51.5 9t37.5 18t28.5 29.5t8.5 44.5 q0 41 -15.5 67t-47.5 37.5t-62.5 14.5t-79.5 3h-225v-225z" />
<glyph unicode="&#xbb;" horiz-adv-x="1071" d="M129 264l305 391l-305 408l115 84l372 -492l-372 -475zM522 264l305 391l-305 408l115 84l373 -492l-373 -475z" />
<glyph unicode="&#x401;" horiz-adv-x="1067" d="M147 0v1544h830v-176h-637v-432h618v-176h-618v-584h637v-176h-830zM219 1884q0 51 36.5 87t88.5 36q51 0 87 -36t36 -87q0 -52 -36 -88.5t-87 -36.5q-52 0 -88.5 36.5t-36.5 88.5zM651 1884q0 51 36.5 87t88.5 36q51 0 87 -36t36 -87q0 -52 -36 -88.5t-87 -36.5 q-52 0 -88.5 36.5t-36.5 88.5z" />
<glyph unicode="&#x402;" horiz-adv-x="1345" d="M4 1368v176h926v-176h-367v-426q99 45 219 45q146 0 266 -66.5t189.5 -185t69.5 -264.5q0 -213 -132.5 -358.5t-320.5 -145.5q-65 0 -119 9t-76 18v213q17 -25 67 -46.5t126 -21.5q119 0 194.5 95.5t75.5 244.5q0 134 -93 235t-226 101q-143 0 -240 -63v-752h-192v1368 h-367z" />
<glyph unicode="&#x403;" horiz-adv-x="921" d="M145 0v1544h732v-176h-539v-1368h-193zM391 1749l256 340l170 -90l-336 -305z" />
<glyph unicode="&#x404;" horiz-adv-x="1353" d="M78 764q0 168 64.5 319t174.5 259t262 171.5t320 63.5q220 0 389 -104v-224q-82 73 -189.5 112.5t-217.5 39.5q-216 0 -380 -135.5t-212 -343.5h813v-181h-832q5 -121 54 -231t129 -190.5t190.5 -128.5t233.5 -48q231 0 411 160v-227q-88 -52 -195.5 -80.5t-209.5 -28.5 q-217 0 -402 105.5t-294 289t-109 402.5z" />
<glyph unicode="&#x405;" horiz-adv-x="1099" d="M66 399l194 41q-1 -126 86 -209.5t213 -83.5q122 0 203.5 89t81.5 213q0 48 -15.5 89t-39 69.5t-61 55t-71 43t-79.5 35.5l-107 45q-58 24 -103 48.5t-90.5 59.5t-75.5 74.5t-48.5 93.5t-18.5 116q0 120 65.5 213t168.5 139.5t221 46.5q129 0 231.5 -60.5t165.5 -173.5 l-153 -92q-44 74 -103 110t-145 36q-99 0 -178.5 -61.5t-79.5 -157.5q0 -139 215 -222l110 -43q89 -35 153.5 -73.5t119 -93t82.5 -129t28 -168.5q0 -138 -65.5 -248.5t-178 -172t-249.5 -61.5q-186 0 -319 122t-158 310z" />
<glyph unicode="&#x406;" horiz-adv-x="475" d="M141 0v1544h193v-1544h-193z" />
<glyph unicode="&#x407;" horiz-adv-x="475" d="M-102 1884q0 51 36.5 87t88.5 36q51 0 86.5 -36t35.5 -87q0 -52 -35.5 -88.5t-86.5 -36.5q-53 0 -89 36.5t-36 88.5zM141 0v1544h193v-1544h-193zM330 1884q0 51 36.5 87t88.5 36q51 0 87 -36t36 -87q0 -52 -36 -88.5t-87 -36.5q-53 0 -89 36.5t-36 88.5z" />
<glyph unicode="&#x408;" horiz-adv-x="741" d="M-39 35l96 164q68 -52 154 -52q35 0 64.5 9.5t50.5 23t37.5 38.5t27.5 46.5t18 55.5t11 57.5t6 62.5t2 58.5v56.5v8v981h193v-981q0 -69 -4 -127t-16 -120.5t-31 -112t-51.5 -95t-75 -75.5t-104 -48t-136.5 -18q-127 0 -242 68z" />
<glyph unicode="&#x409;" horiz-adv-x="1970" d="M57 0v164h39q47 0 84 16.5t60.5 48.5t39 70.5t23.5 91t11 100.5t3 109v944h934v-647h135q161 0 283 -50.5t194 -157t72 -257.5q0 -112 -45 -197.5t-122 -135t-170 -74.5t-199 -25h-340v1364h-549v-817q0 -165 -36.5 -284.5t-121 -191t-211.5 -71.5h-84zM1251 172h127 q57 0 106.5 7t98.5 26t83 48.5t55.5 78.5t21.5 112t-23 112.5t-61 80.5t-90 51.5t-105.5 28.5t-113.5 8h-99v-553z" />
<glyph unicode="&#x40a;" horiz-adv-x="1970" d="M131 0v1544h193v-647h673v647h193v-647h135q161 0 283 -50.5t194 -157t72 -257.5q0 -90 -30 -163.5t-80.5 -122.5t-120 -82.5t-146 -48.5t-160.5 -15h-340v717h-673v-717h-193zM1190 172h127q73 0 133 12.5t114.5 41t85.5 84t31 134.5q0 63 -23 112.5t-61 80.5t-90 51.5 t-105.5 28.5t-113.5 8h-98v-553z" />
<glyph unicode="&#x40b;" horiz-adv-x="1394" d="M4 1368v176h926v-176h-367v-467q187 17 283 17q94 0 176.5 -24.5t146 -70t100 -116t36.5 -158.5v-549h-193v545q0 200 -315 200q-101 0 -234 -14v-731h-192v1368h-367z" />
<glyph unicode="&#x40c;" horiz-adv-x="1228" d="M147 0v1544h193v-670l655 670h252l-694 -694l707 -850h-261l-581 719l-78 -74v-645h-193zM514 1749l256 340l170 -90l-336 -305z" />
<glyph unicode="&#x40e;" horiz-adv-x="1177" d="M-35 1544h211l408 -803l409 803h211l-801 -1544h-196l276 545zM233 1964l144 37q34 -81 86 -122.5t135 -41.5t135 41t88 121l146 -29q-25 -113 -130.5 -194.5t-238.5 -81.5t-235 76.5t-130 193.5z" />
<glyph unicode="&#x40f;" horiz-adv-x="1443" d="M131 0v1544h193v-1364h735v1364h192v-1544h-448v-365h-193v365h-479z" />
<glyph unicode="&#x410;" horiz-adv-x="1439" d="M-16 0l737 1610l737 -1610h-207l-176 387h-708l-177 -387h-206zM446 563h549l-274 625z" />
<glyph unicode="&#x411;" horiz-adv-x="1075" d="M131 0v1544h743v-176h-550v-487h155q121 0 220 -27t173 -80.5t115 -140.5t41 -201q0 -112 -45 -197.5t-122 -135t-170 -74.5t-199 -25h-361zM324 172h147q57 0 106.5 7t98.5 26t83 48.5t55.5 78.5t21.5 112q0 62 -25 110t-63.5 76.5t-93 46t-105 24t-107.5 6.5h-118v-535 z" />
<glyph unicode="&#x412;" horiz-adv-x="1095" d="M131 0v1544h188q94 0 171.5 -10.5t153 -39t127 -74.5t83 -122.5t31.5 -177.5q0 -89 -45.5 -173.5t-120.5 -119.5v-4q134 -24 221.5 -138.5t87.5 -252.5q0 -112 -45 -197.5t-122 -135t-170 -74.5t-199 -25h-361zM324 172h147q57 0 106.5 7t98.5 26t83 48.5t55.5 78.5 t21.5 112q0 62 -25 110t-63.5 76.5t-93 46t-105 24t-107.5 6.5h-118v-535zM324 860h49q60 0 105 5.5t90 22t73.5 44t46 75t17.5 111.5q0 63 -17.5 109.5t-45.5 74t-72 43.5t-89 21.5t-104 5.5h-53v-512z" />
<glyph unicode="&#x413;" horiz-adv-x="950" d="M145 0v1544h793v-176h-600v-1368h-193z" />
<glyph unicode="&#x414;" horiz-adv-x="1382" d="M-4 180h45q85 0 155.5 83t109 213.5t38.5 273.5v794h836v-1364h196v-545h-192v365h-996v-365h-192v545zM348 180h639v1184h-450v-553q0 -230 -50 -393t-139 -238z" />
<glyph unicode="&#x415;" horiz-adv-x="1067" d="M147 0v1544h830v-176h-637v-432h618v-176h-618v-584h637v-176h-830z" />
<glyph unicode="&#x416;" horiz-adv-x="1849" d="M-18 0l677 827l-669 717h252l573 -645h6v645h193v-645h6l573 645h252l-669 -717l677 -827h-256l-553 700l-30 -30v-670h-193v670l-30 30l-553 -700h-256z" />
<glyph unicode="&#x417;" horiz-adv-x="1122" d="M49 379l184 39q13 -112 111 -192.5t211 -80.5q129 0 216 86.5t87 212.5q0 144 -90 224t-236 80h-124v167h124q304 0 304 236q0 115 -75.5 181.5t-193.5 66.5q-99 0 -166 -54t-102 -143l-154 82q24 61 59.5 111t86.5 92.5t123 66t159 23.5q125 0 228 -47.5t167 -142.5 t64 -220q0 -225 -209 -340q113 -49 172.5 -155t59.5 -236q0 -140 -69 -248.5t-183.5 -164.5t-253.5 -56q-122 0 -231.5 50.5t-183.5 146t-85 215.5z" />
<glyph unicode="&#x418;" horiz-adv-x="1382" d="M127 -63v1607h192v-1075l934 1149v-1618h-192v1100z" />
<glyph unicode="&#x419;" horiz-adv-x="1382" d="M127 -61v1607h192v-1075l934 1149v-1618h-192v1100zM350 1956l144 37q34 -81 86.5 -123.5t134.5 -42.5q83 -1 135 40.5t88 123.5l145 -31v2q-25 -113 -130 -194.5t-238 -81.5t-235 76.5t-130 193.5z" />
<glyph unicode="&#x41a;" horiz-adv-x="1228" d="M147 0v1544h193v-670l655 670h252l-694 -694l707 -850h-261l-581 719l-78 -74v-645h-193z" />
<glyph unicode="&#x41b;" horiz-adv-x="1382" d="M57 0v164h39q47 0 84 16.5t60.5 48.5t39 70.5t23.5 91t11 100.5t3 109v944h934v-1544h-192v1364h-549v-817q0 -165 -36.5 -284.5t-121 -191t-211.5 -71.5h-84z" />
<glyph unicode="&#x41c;" horiz-adv-x="1742" d="M27 0l315 1610l530 -1217l531 1217l315 -1610h-198l-181 1020h-4l-463 -1053l-462 1053h-4l-181 -1020h-198z" />
<glyph unicode="&#x41d;" horiz-adv-x="1382" d="M131 0v1544h193v-622h735v622h192v-1544h-192v741h-735v-741h-193z" />
<glyph unicode="&#x41e;" horiz-adv-x="1695" d="M39 772q0 130 41.5 253t116.5 222t174.5 173.5t223 115.5t253.5 41t253.5 -41t223 -115.5t174.5 -173.5t116.5 -222t41.5 -253q0 -169 -64 -319t-173 -256t-258 -168t-314 -62t-314 62t-258 168t-173 256t-64 319zM231 772q0 -129 49.5 -245.5t133 -199.5t197.5 -131.5 t237 -48.5q165 0 306.5 82t225.5 226.5t84 316.5q0 169 -77.5 311.5t-219.5 228t-319 85.5q-133 0 -249 -50t-196 -135t-126 -199.5t-46 -240.5z" />
<glyph unicode="&#x41f;" horiz-adv-x="1382" d="M131 0v1544h1120v-1544h-192v1364h-735v-1364h-193z" />
<glyph unicode="&#x420;" horiz-adv-x="1013" d="M147 0v1544h222q141 0 247 -19.5t177 -55.5t115.5 -92t63.5 -123.5t19 -155.5q0 -118 -42.5 -207t-118 -141t-170.5 -77.5t-209 -25.5h-111v-647h-193zM340 819h61q66 0 119 5.5t109.5 23.5t94.5 48t62.5 82.5t24.5 123.5q0 50 -13.5 91t-36 68.5t-56.5 48t-68.5 32.5 t-79.5 19t-82.5 9t-83.5 2h-51v-553z" />
<glyph unicode="&#x421;" horiz-adv-x="1353" d="M61 764q0 168 65 319t175 259t262 171.5t320 63.5q220 0 389 -104v-224q-82 73 -190 112.5t-218 39.5q-169 0 -310 -86t-220.5 -231t-79.5 -314q0 -167 79 -311t219 -230t308 -86q232 0 412 160v-227q-88 -52 -196 -80.5t-210 -28.5q-217 0 -402 105.5t-294 289 t-109 402.5z" />
<glyph unicode="&#x422;" horiz-adv-x="933" d="M4 1368v176h926v-176h-367v-1368h-192v1368h-367z" />
<glyph unicode="&#x423;" horiz-adv-x="1228" d="M-4 1544h211l407 -803l410 803h211l-801 -1544h-196l276 545z" />
<glyph unicode="&#x424;" horiz-adv-x="1767" d="M63 811q0 133 44 242t132 190.5t229 126.5t325 45h8v129h192v-129h8q184 0 325 -45t229 -126.5t132 -190.5t44 -242q0 -273 -194 -441.5t-515 -168.5h-29v-201h-192v201h-29q-321 0 -515 168.5t-194 441.5zM244 815q0 -218 150 -332t407 -114v880q-92 0 -171.5 -14 t-151.5 -46.5t-123 -81.5t-81 -123.5t-30 -168.5zM993 369q257 0 407 114t150 332q0 94 -30 168.5t-81 123.5t-123 81.5t-151.5 46.5t-171.5 14v-880z" />
<glyph unicode="&#x425;" horiz-adv-x="1175" d="M0 0l485 809l-426 735h220l315 -563l336 563h219l-444 -735l469 -809h-216l-364 633l-379 -633h-215z" />
<glyph unicode="&#x426;" horiz-adv-x="1443" d="M131 0v1544h193v-1364h735v1364h192v-1364h197v-545h-193v365h-1124z" />
<glyph unicode="&#x427;" horiz-adv-x="1224" d="M109 995v549h192v-545q0 -200 315 -200q157 0 287 20v725h193v-1544h-193v647q-225 -20 -336 -20q-126 0 -228.5 41t-166 126t-63.5 201z" />
<glyph unicode="&#x428;" horiz-adv-x="2041" d="M131 0v1544h193v-1364h606v1364h192v-1364h607v1364h192v-1544h-1790z" />
<glyph unicode="&#x429;" horiz-adv-x="2097" d="M131 0v1544h193v-1364h606v1364h192v-1364h607v1364h192v-1364h197v-545h-193v365h-1794z" />
<glyph unicode="&#x42a;" horiz-adv-x="1239" d="M4 1368v176h524v-647h136q161 0 283 -50.5t193.5 -157t71.5 -257.5q0 -112 -45 -197.5t-122 -135t-170 -74.5t-199 -25h-340v1368h-332zM528 172h127q57 0 106.5 7t98.5 26t83 48.5t55.5 78.5t21.5 112t-23 112.5t-61 80.5t-90 51.5t-105.5 28.5t-113.5 8h-99v-553z" />
<glyph unicode="&#x42b;" horiz-adv-x="1464" d="M131 0v1544h193v-647h135q161 0 283 -50.5t194 -157t72 -257.5q0 -90 -30 -163.5t-80.5 -122.5t-120 -82.5t-146 -48.5t-160.5 -15h-340zM324 172h127q73 0 133 12.5t114.5 41t85.5 84t31 134.5q0 63 -23 112.5t-61 80.5t-90 51.5t-105.5 28.5t-113.5 8h-98v-553zM1141 0 v1544h192v-1544h-192z" />
<glyph unicode="&#x42c;" horiz-adv-x="1034" d="M131 0v1544h193v-647h135q161 0 283 -50.5t194 -157t72 -257.5q0 -90 -30 -163.5t-80.5 -122.5t-120 -82.5t-146 -48.5t-160.5 -15h-340zM324 172h127q73 0 133 12.5t114.5 41t85.5 84t31 134.5q0 63 -23 112.5t-61 80.5t-90 51.5t-105.5 28.5t-113.5 8h-98v-553z" />
<glyph unicode="&#x42d;" horiz-adv-x="1353" d="M76 76v227q180 -160 411 -160q123 0 233.5 48t190.5 128.5t129 190.5t54 231h-832v181h813q-48 208 -212 343.5t-380 135.5q-110 0 -217.5 -39.5t-189.5 -112.5v224q169 104 389 104q168 0 320 -63.5t262 -171.5t174.5 -259t64.5 -319q0 -219 -109 -402.5t-294 -289 t-402 -105.5q-102 0 -209.5 28.5t-195.5 80.5z" />
<glyph unicode="&#x42e;" horiz-adv-x="2105" d="M131 0v1544h193v-622h139q36 185 149.5 334.5t283 235t361.5 85.5q130 0 253.5 -41t223 -115.5t174.5 -173.5t116.5 -222t41.5 -253q0 -169 -64 -319t-173 -256t-258 -168t-314 -62q-215 0 -397.5 100.5t-292.5 278.5t-118 395h-125v-741h-193zM641 772q0 -172 84 -316.5 t225.5 -226.5t306.5 -82q123 0 237 48.5t197.5 131.5t133 199.5t49.5 245.5q0 126 -46 240.5t-126 199.5t-196 135t-249 50q-177 0 -319 -85.5t-219.5 -228t-77.5 -311.5z" />
<glyph unicode="&#x42f;" horiz-adv-x="1112" d="M33 0l487 672q-165 20 -267.5 142t-102.5 290q0 113 53.5 213t148.5 156q57 33 134 49.5t130 19t144 2.5h233v-1544h-192v653h-80l-455 -653h-233zM330 1096q0 -71 24.5 -123.5t62 -82.5t94 -48t109.5 -23.5t119 -5.5h62v559h-51q-65 0 -117.5 -5t-111.5 -22.5 t-98.5 -46.5t-66 -80.5t-26.5 -121.5z" />
<glyph unicode="&#x430;" horiz-adv-x="1138" d="M53 485q0 132 54 245.5t159 185t240 71.5q103 0 188 -49.5t144 -138.5h4v159h184v-958h-184v150h-4q-57 -85 -141.5 -134t-184.5 -49q-141 0 -247.5 73t-159 189.5t-52.5 255.5zM238 479q0 -92 34 -170t104.5 -128t164.5 -50q145 0 228 100t83 248q0 146 -83.5 245 t-227.5 99q-137 0 -220 -102t-83 -242z" />
<glyph unicode="&#x431;" horiz-adv-x="1105" d="M41 580q0 195 31 355t84 273.5t131 201t164.5 141.5t191.5 91q112 39 154.5 65.5t52.5 70.5h203q0 -92 -105.5 -175t-242.5 -114q-124 -27 -231 -126.5t-175 -246t-82 -309.5h6q52 88 151 134t220 46q87 0 171 -37.5t151 -102.5t108 -162t41 -208q0 -216 -148 -363 t-364 -147q-232 0 -372 159.5t-140 453.5zM225 477q0 -136 96 -235t232 -99t232 99t96 235q0 137 -96 235.5t-232 98.5t-232 -98.5t-96 -235.5z" />
<glyph unicode="&#x432;" horiz-adv-x="1044" d="M127 0v958h500q83 0 141 -23t86 -62t39.5 -77t11.5 -81q0 -133 -129 -191v-4q84 -9 141.5 -76.5t57.5 -160.5q0 -35 -6.5 -69t-27.5 -74.5t-54.5 -70t-93.5 -49.5t-138 -20h-528zM311 164h279q27 0 57 5.5t65 18.5t57 42t22 69q0 123 -195 123h-285v-258zM311 575h228 q182 0 182 115q0 34 -20 56.5t-53 31.5t-57.5 12t-51.5 3h-228v-218z" />
<glyph unicode="&#x433;" horiz-adv-x="780" d="M127 0v958h635v-172h-451v-786h-184z" />
<glyph unicode="&#x434;" horiz-adv-x="1054" d="M6 172q52 3 89.5 24.5t59 53t34 79t16.5 93t4 106.5v430h715v-786h127v-467h-185v295h-676v-295h-184v467zM285 172h454v614h-346v-342q0 -185 -108 -272z" />
<glyph unicode="&#x435;" horiz-adv-x="999" d="M53 471q0 230 121.5 373t345.5 143q148 0 251 -69t150.5 -182t47.5 -259v-28h-731q2 -129 81.5 -223.5t206.5 -94.5q100 0 165 46t122 140l156 -88q-67 -124 -185.5 -193t-259.5 -69q-143 0 -251 67t-164 181t-56 256zM248 588h536q-18 110 -87 174.5t-177 64.5 q-105 0 -179.5 -67t-92.5 -172z" />
<glyph unicode="&#x436;" horiz-adv-x="1402" d="M6 0l451 526l-430 430h243l336 -364h4v366h185v-366h4l336 364h243l-430 -430l451 -526h-240l-338 426l-26 -23v-403h-185v403l-26 23l-338 -426h-240z" />
<glyph unicode="&#x437;" horiz-adv-x="901" d="M41 178l158 72q29 -54 91.5 -86.5t137.5 -32.5q34 0 69.5 7t73.5 22t62 46t24 73q0 74 -40 114.5t-148 40.5h-109v144h72q89 0 136.5 34t47.5 99q0 112 -165 112q-76 0 -123.5 -24.5t-79.5 -75.5l-150 80q52 88 147.5 136t215.5 48q157 0 248.5 -68.5t91.5 -203.5 q0 -63 -43.5 -114.5t-114.5 -76.5v-4q85 -12 142 -78.5t57 -158.5q0 -147 -113.5 -231.5t-300.5 -84.5q-77 0 -155 24t-143 73t-89 114z" />
<glyph unicode="&#x438;" horiz-adv-x="1071" d="M127 -43v1001h184v-589l635 632v-1001h-184v590z" />
<glyph unicode="&#x439;" horiz-adv-x="1071" d="M127 -43v1001h184v-589l635 632v-1001h-184v590zM223 1384l135 33q32 -76 81.5 -114.5t127.5 -38.5q79 0 128 38t83 115l137 -28q-24 -107 -123 -184t-225 -77t-221.5 73t-122.5 183z" />
<glyph unicode="&#x43a;" horiz-adv-x="946" d="M139 0v958h185v-389h4l356 389h244l-410 -426l451 -532h-240l-342 408l-63 -64v-344h-185z" />
<glyph unicode="&#x43b;" horiz-adv-x="1071" d="M43 0v166h29q131 0 131 174v618h743v-958h-184v786h-375v-485q0 -139 -75.5 -220t-186.5 -81h-82z" />
<glyph unicode="&#x43c;" horiz-adv-x="1269" d="M-4 0l328 991l313 -663l315 663l318 -991h-199l-151 535h-5l-278 -568l-279 565h-4l-151 -532h-207z" />
<glyph unicode="&#x43d;" horiz-adv-x="1071" d="M127 0v958h184v-354h451v354h184v-958h-184v432h-451v-432h-184z" />
<glyph unicode="&#x43e;" horiz-adv-x="1105" d="M41 477q0 216 148 363t364 147t364 -147t148 -363t-148 -363t-364 -147t-364 147t-148 363zM225 477q0 -136 96 -235t232 -99t232 99t96 235q0 137 -96 235.5t-232 98.5t-232 -98.5t-96 -235.5z" />
<glyph unicode="&#x43f;" horiz-adv-x="1071" d="M127 0v958h819v-958h-184v786h-451v-786h-184z" />
<glyph unicode="&#x440;" horiz-adv-x="1138" d="M113 -549v1507h184v-159h4q59 89 144 138.5t190 49.5q133 0 237.5 -71t158.5 -185t54 -246q0 -104 -30.5 -197t-87 -164.5t-145 -114t-195.5 -42.5q-99 0 -184 49.5t-142 133.5h-4v-699h-184zM287 479q0 -92 34 -170t104.5 -128t164.5 -50q145 0 228 100t83 248 q0 146 -83.5 245t-227.5 99q-137 0 -220 -102t-83 -242z" />
<glyph unicode="&#x441;" horiz-adv-x="903" d="M53 471q0 146 69.5 264.5t189.5 185t266 66.5q145 0 253 -63v-238q-114 129 -274 129q-133 0 -226 -101t-93 -235q0 -148 92.5 -244t238.5 -96q148 0 262 127v-235q-119 -64 -264 -64q-140 0 -258 65.5t-187 181.5t-69 257z" />
<glyph unicode="&#x442;" horiz-adv-x="858" d="M10 786v172h836v-172h-326v-786h-184v786h-326z" />
<glyph unicode="&#x443;" horiz-adv-x="991" d="M-27 958h215l324 -608l301 608h207l-776 -1507h-209l377 713z" />
<glyph unicode="&#x444;" horiz-adv-x="1396" d="M55 477q0 115 46 210.5t123 158t176.5 97t207.5 34.5v801h185v-801q108 0 207.5 -34.5t176.5 -97t123 -158t46 -210.5q0 -113 -46 -208t-123 -157.5t-176.5 -97t-207.5 -34.5v-529h-185v529q-108 0 -207.5 34.5t-176.5 97t-123 157.5t-46 208zM240 477q0 -98 54.5 -176 t137.5 -118t176 -40v668q-93 0 -176 -39.5t-137.5 -117.5t-54.5 -177zM793 143q93 0 176 40t137.5 118t54.5 176q0 99 -54.5 177t-137.5 117.5t-176 39.5v-668z" />
<glyph unicode="&#x445;" horiz-adv-x="1001" d="M-29 0l428 520l-344 438h217l228 -309l248 309h223l-353 -438l412 -520h-215l-315 389l-305 -389h-224z" />
<glyph unicode="&#x446;" horiz-adv-x="1091" d="M127 0v958h184v-786h451v786h184v-786h148v-467h-185v295h-782z" />
<glyph unicode="&#x447;" horiz-adv-x="1005" d="M113 649v309h184v-249q0 -57 14.5 -97.5t33.5 -61t52.5 -31.5t57 -13t61.5 -2q92 0 180 14v440h185v-958h-185v375q-179 -29 -274 -29q-160 0 -234.5 70.5t-74.5 232.5z" />
<glyph unicode="&#x448;" horiz-adv-x="1552" d="M127 0v958h184v-786h379v786h184v-786h379v786h185v-958h-1311z" />
<glyph unicode="&#x449;" horiz-adv-x="1583" d="M127 0v958h184v-786h379v786h184v-786h379v786h185v-786h147v-467h-184v295h-1274z" />
<glyph unicode="&#x44a;" horiz-adv-x="1181" d="M10 786v172h445v-327h266q373 0 373 -312q0 -44 -7 -84t-29 -84.5t-56.5 -76.5t-94.5 -53t-139 -21h-498v786h-260zM455 170h247q26 0 58 7t67 22t58.5 45.5t23.5 70.5q0 58 -47 102t-153 44h-254v-291z" />
<glyph unicode="&#x44b;" horiz-adv-x="1378" d="M127 0v958h184v-327h267q372 0 372 -312q0 -44 -7 -84t-28.5 -84.5t-56 -76.5t-94.5 -53t-139 -21h-498zM311 170h248q26 0 58 7t67 22t58.5 45.5t23.5 70.5q0 58 -47.5 102t-153.5 44h-254v-291zM1069 0v958h184v-958h-184z" />
<glyph unicode="&#x44c;" horiz-adv-x="1017" d="M127 0v958h184v-327h267q372 0 372 -312q0 -44 -7 -84t-28.5 -84.5t-56 -76.5t-94.5 -53t-139 -21h-498zM311 170h248q26 0 58 7t67 22t58.5 45.5t23.5 70.5q0 58 -47.5 102t-153.5 44h-254v-291z" />
<glyph unicode="&#x44d;" horiz-adv-x="903" d="M86 31v235q114 -127 262 -127q134 0 225 83t105 214h-473v139h461q-30 103 -114.5 171.5t-191.5 68.5q-160 0 -274 -129v238q108 63 254 63t266 -66.5t189 -185t69 -264.5q0 -141 -69 -257t-187 -181.5t-258 -65.5q-145 0 -264 64z" />
<glyph unicode="&#x44e;" horiz-adv-x="1536" d="M127 0v958h184v-354h174q42 169 179.5 276t318.5 107q216 0 364 -147t148 -363t-148 -363t-364 -147q-203 0 -348 132.5t-162 332.5h-162v-432h-184zM655 477q0 -136 96 -235t232 -99t232 99t96 235q0 137 -96 235.5t-232 98.5t-232 -98.5t-96 -235.5z" />
<glyph unicode="&#x44f;" horiz-adv-x="1024" d="M2 0l330 391q-39 6 -76.5 23.5t-72 48t-56 79.5t-21.5 109q0 44 10 85.5t34.5 82.5t62 71t97 49t134.5 19h455v-958h-184v371h-174l-301 -371h-238zM283 662q0 -130 209 -130h223v254h-223q-209 0 -209 -124z" />
<glyph unicode="&#x451;" horiz-adv-x="999" d="M53 471q0 230 121.5 373t345.5 143q148 0 251 -69t150.5 -182t47.5 -259v-28h-731q2 -129 81.5 -223.5t206.5 -94.5q100 0 165 46t122 140l156 -88q-67 -124 -185.5 -193t-259.5 -69q-143 0 -251 67t-164 181t-56 256zM160 1298q0 51 36.5 87t88.5 36q51 0 87 -36t36 -87 q0 -52 -36 -88t-87 -36q-53 0 -89 36t-36 88zM248 588h536q-18 110 -87 174.5t-177 64.5q-105 0 -179.5 -67t-92.5 -172zM592 1298q0 51 36.5 87t88.5 36q51 0 87 -36t36 -87q0 -52 -36 -88t-87 -36q-53 0 -89 36t-36 88z" />
<glyph unicode="&#x452;" horiz-adv-x="1036" d="M53 1155v172h101v449h184v-449h344v-172h-344v-326h4q42 75 120.5 116.5t168.5 41.5q78 0 138.5 -23.5t98 -62.5t61.5 -94t33 -112t9 -124q0 -108 -26 -221t-77 -227.5t-96 -199t-113 -197.5h-204q161 232 246 425t85 398q0 35 -2.5 64t-10 62t-22.5 58t-37.5 46.5 t-58 32.5t-80.5 11q-39 0 -70.5 -8t-55 -19.5t-41.5 -33.5t-29.5 -40t-19.5 -50t-12 -53.5t-6 -59t-2.5 -58t-0.5 -59.5v-2v-440h-184v1155h-101z" />
<glyph unicode="&#x453;" horiz-adv-x="780" d="M127 0v958h635v-172h-451v-786h-184zM301 1126l256 340l170 -90l-336 -305z" />
<glyph unicode="&#x454;" horiz-adv-x="903" d="M61 471q0 146 69.5 264.5t189.5 185t266 66.5t254 -63v-238q-114 129 -275 129q-107 0 -191 -68.5t-114 -171.5h461v-139h-473q14 -131 105 -214t225 -83q148 0 262 127v-235q-119 -64 -265 -64q-140 0 -258 65.5t-187 181.5t-69 257z" />
<glyph unicode="&#x455;" horiz-adv-x="786" d="M72 182l157 72q33 -60 72.5 -91.5t101.5 -31.5q60 0 103 37.5t43 97.5q0 36 -16 58.5t-52 46.5l-180 96q-94 50 -139 101t-45 141q0 117 82.5 197.5t199.5 80.5q87 0 155.5 -44.5t107.5 -123.5l-150 -80q-18 37 -51 60.5t-72 23.5t-69.5 -27.5t-30.5 -66.5q0 -18 5.5 -33 t20 -29.5t25.5 -24t38 -23.5t39.5 -20t47.5 -21.5t47 -20.5q48 -22 83 -43.5t69 -53.5t51.5 -76t17.5 -99q0 -135 -97.5 -226.5t-232.5 -91.5q-107 0 -200.5 58t-130.5 157z" />
<glyph unicode="&#x456;" horiz-adv-x="520" d="M133 1397q0 54 37 91.5t90 37.5t90 -37.5t37 -91.5q0 -52 -37 -88.5t-90 -36.5t-90 36.5t-37 88.5zM168 0v958h184v-958h-184z" />
<glyph unicode="&#x457;" horiz-adv-x="520" d="M-80 1298q0 51 36.5 87t88.5 36q51 0 87 -36t36 -87q0 -52 -36 -88t-87 -36q-53 0 -89 36t-36 88zM168 0v958h184v-958h-184zM352 1298q0 51 36.5 87t88.5 36q51 0 87 -36t36 -87q0 -52 -36 -88t-87 -36q-53 0 -89 36t-36 88z" />
<glyph unicode="&#x458;" horiz-adv-x="520" d="M133 1397q0 54 37 91.5t90 37.5t90 -37.5t37 -91.5q0 -52 -37 -88.5t-90 -36.5t-90 36.5t-37 88.5zM168 -549v1507h184v-1507h-184z" />
<glyph unicode="&#x459;" horiz-adv-x="1605" d="M43 0v166h29q131 0 131 174v618h743v-354h225q373 0 373 -297q0 -44 -7 -83t-28.5 -81.5t-56 -72.5t-94.5 -50t-139 -20h-457v786h-375v-485q0 -139 -75.5 -220t-186.5 -81h-82zM946 170h207q27 0 58 5.5t67 19t59 41.5t23 67q0 55 -47 93t-154 38h-213v-264z" />
<glyph unicode="&#x45a;" horiz-adv-x="1605" d="M127 0v958h184v-354h451v354h184v-354h225q373 0 373 -297q0 -44 -7 -83t-28.5 -81.5t-56 -72.5t-94.5 -50t-139 -20h-457v432h-451v-432h-184zM946 170h207q27 0 58 5.5t67 19t59 41.5t23 67q0 55 -47 93t-154 38h-213v-264z" />
<glyph unicode="&#x45b;" horiz-adv-x="1071" d="M53 1155v172h101v449h184v-449h344v-172h-344v-326h4q42 75 120.5 116.5t168.5 41.5q98 0 166.5 -31.5t105.5 -90.5t52.5 -130t15.5 -164v-571h-185v549q0 55 -4 92.5t-16.5 74.5t-35 58.5t-61.5 35t-94 13.5q-39 0 -70.5 -8t-55 -19.5t-41.5 -33.5t-29.5 -40t-19.5 -50 t-12 -53.5t-6 -59t-2.5 -58t-0.5 -59.5v-2v-440h-184v1155h-101z" />
<glyph unicode="&#x45c;" horiz-adv-x="946" d="M139 0v958h185v-389h4l356 389h244l-410 -426l451 -532h-240l-342 408l-63 -64v-344h-185zM383 1126l256 340l170 -90l-336 -305z" />
<glyph unicode="&#x45e;" horiz-adv-x="991" d="M-27 958h215l324 -608l301 608h207l-776 -1507h-209l377 713zM162 1384l135 33q32 -76 81.5 -114.5t127.5 -38.5q79 0 128 38t83 115l137 -28q-24 -107 -123 -184t-225 -77t-221.5 73t-122.5 183z" />
<glyph unicode="&#x45f;" horiz-adv-x="1091" d="M127 0v958h184v-786h451v786h184v-958h-311v-295h-184v295h-324z" />
<glyph unicode="&#x490;" horiz-adv-x="950" d="M145 0v1544h600v369h193v-545h-600v-1368h-193z" />
<glyph unicode="&#x491;" horiz-adv-x="780" d="M127 0v958h451v295h184v-467h-451v-786h-184z" />
<glyph unicode="&#x2000;" horiz-adv-x="1044" />
<glyph unicode="&#x2001;" horiz-adv-x="2089" />
<glyph unicode="&#x2002;" horiz-adv-x="1044" />
<glyph unicode="&#x2003;" horiz-adv-x="2089" />
<glyph unicode="&#x2004;" horiz-adv-x="696" />
<glyph unicode="&#x2005;" horiz-adv-x="522" />
<glyph unicode="&#x2006;" horiz-adv-x="348" />
<glyph unicode="&#x2007;" horiz-adv-x="348" />
<glyph unicode="&#x2008;" horiz-adv-x="261" />
<glyph unicode="&#x2009;" horiz-adv-x="417" />
<glyph unicode="&#x200a;" horiz-adv-x="116" />
<glyph unicode="&#x2010;" horiz-adv-x="679" d="M76 477v154h530v-154h-530z" />
<glyph unicode="&#x2011;" horiz-adv-x="679" d="M76 477v154h530v-154h-530z" />
<glyph unicode="&#x2012;" horiz-adv-x="679" d="M76 477v154h530v-154h-530z" />
<glyph unicode="&#x2013;" horiz-adv-x="1024" d="M41 477v154h942v-154h-942z" />
<glyph unicode="&#x2014;" horiz-adv-x="2048" d="M41 477v154h1966v-154h-1966z" />
<glyph unicode="&#x2018;" horiz-adv-x="567" d="M123 1030l272 547l115 -47l-225 -563z" />
<glyph unicode="&#x2019;" horiz-adv-x="567" d="M57 1014l226 563l161 -64l-272 -546z" />
<glyph unicode="&#x201a;" horiz-adv-x="567" d="M111 -319l225 563l160 -64l-273 -547z" />
<glyph unicode="&#x201c;" horiz-adv-x="899" d="M123 1030l272 547l115 -47l-225 -563zM463 1030l272 547l115 -47l-225 -563z" />
<glyph unicode="&#x201d;" horiz-adv-x="899" d="M49 1014l225 563l162 -64l-272 -546zM389 1014l225 563l162 -64l-272 -546z" />
<glyph unicode="&#x201e;" horiz-adv-x="899" d="M102 -319l226 563l159 -64l-272 -547zM442 -319l226 563l159 -64l-272 -547z" />
<glyph unicode="&#x2026;" horiz-adv-x="2048" d="M221 86q0 48 35 83.5t84 35.5t84 -35.5t35 -83.5q0 -50 -34.5 -84.5t-84.5 -34.5t-84.5 34.5t-34.5 84.5zM905 86q0 48 35 83.5t84 35.5t84 -35.5t35 -83.5q0 -50 -34.5 -84.5t-84.5 -34.5t-84.5 34.5t-34.5 84.5zM1589 86q0 48 35 83.5t84 35.5t84 -35.5t35 -83.5 q0 -50 -34.5 -84.5t-84.5 -34.5t-84.5 34.5t-34.5 84.5z" />
<glyph unicode="&#x202f;" horiz-adv-x="417" />
<glyph unicode="&#x2039;" horiz-adv-x="688" d="M45 655l373 492l114 -84l-305 -408l305 -391l-114 -84z" />
<glyph unicode="&#x203a;" horiz-adv-x="688" d="M156 264l305 391l-305 408l114 84l373 -492l-373 -475z" />
<glyph unicode="&#x205f;" horiz-adv-x="522" />
<glyph unicode="&#x20ac;" d="M51 541l51 157h93q-5 45 -5 82q0 26 5 76h-144l51 156h105q18 125 58 225.5t104.5 178t161 119.5t219.5 42q112 0 203 -30.5t139 -71.5v-205q-114 123 -322 123q-165 0 -259.5 -103.5t-117.5 -277.5h615l-54 -156h-581q-4 -40 -4 -76q0 -42 4 -82h530l-53 -157h-457 q25 -186 122 -287.5t257 -101.5q198 0 320 122v-206q-43 -39 -133.5 -69t-208.5 -30q-224 0 -363 142.5t-178 429.5h-158z" />
<glyph unicode="&#x2122;" horiz-adv-x="1925" d="M70 1413v131h696v-131h-283v-731h-131v731h-282zM924 682v862h215l247 -608l256 608h213v-862h-131v731h-4l-295 -731h-79l-287 731h-4v-731h-131z" />
<glyph unicode="&#x25fc;" horiz-adv-x="962" d="M0 0v963h963v-963h-963z" />
</font>
</defs>
</svg>
